<mxGraphModel><root><mxCell id="0"/><mxCell id="1" parent="0"/><mxCell id="2" value="Store" style="shape=umlLifeline;perimeter=lifelinePerimeter;whiteSpace=wrap;container=1;dropTarget=0;collapsible=0;recursiveResize=0;outlineConnect=0;portConstraint=eastwest;newEdgeStyle={&quot;edgeStyle&quot;:&quot;elbowEdgeStyle&quot;,&quot;elbow&quot;:&quot;vertical&quot;,&quot;curved&quot;:0,&quot;rounded&quot;:0};size=65;" vertex="1" parent="1"><mxGeometry width="150" height="940" as="geometry"/></mxCell><mxCell id="3" value="System" style="shape=umlLifeline;perimeter=lifelinePerimeter;whiteSpace=wrap;container=1;dropTarget=0;collapsible=0;recursiveResize=0;outlineConnect=0;portConstraint=eastwest;newEdgeStyle={&quot;edgeStyle&quot;:&quot;elbowEdgeStyle&quot;,&quot;elbow&quot;:&quot;vertical&quot;,&quot;curved&quot;:0,&quot;rounded&quot;:0};size=65;" vertex="1" parent="1"><mxGeometry x="302" width="150" height="940" as="geometry"/></mxCell><mxCell id="4" value="Request to View Product Catalog" style="verticalAlign=bottom;edgeStyle=elbowEdgeStyle;elbow=vertical;curved=0;rounded=0;endArrow=block;" edge="1" parent="1" source="2" target="3"><mxGeometry relative="1" as="geometry"><Array as="points"><mxPoint x="235" y="109"/></Array></mxGeometry></mxCell><mxCell id="5" value="Product Catalog Data" style="verticalAlign=bottom;edgeStyle=elbowEdgeStyle;elbow=vertical;curved=0;rounded=0;dashed=1;dashPattern=2 3;endArrow=block;" edge="1" parent="1" source="3" target="2"><mxGeometry relative="1" as="geometry"><Array as="points"><mxPoint x="238" y="211"/></Array></mxGeometry></mxCell><mxCell id="6" value="Request to Add Product to Cart" style="verticalAlign=bottom;edgeStyle=elbowEdgeStyle;elbow=vertical;curved=0;rounded=0;endArrow=block;" edge="1" parent="1" source="2" target="3"><mxGeometry relative="1" as="geometry"><Array as="points"><mxPoint x="235" y="265"/></Array></mxGeometry></mxCell><mxCell id="7" value="Success Message" style="verticalAlign=bottom;edgeStyle=elbowEdgeStyle;elbow=vertical;curved=0;rounded=0;dashed=1;dashPattern=2 3;endArrow=block;" edge="1" parent="1" source="3" target="2"><mxGeometry relative="1" as="geometry"><Array as="points"><mxPoint x="238" y="367"/></Array></mxGeometry></mxCell><mxCell id="8" value="Request to Update Cart Quantity" style="verticalAlign=bottom;edgeStyle=elbowEdgeStyle;elbow=vertical;curved=0;rounded=0;endArrow=block;" edge="1" parent="1" source="2" target="3"><mxGeometry relative="1" as="geometry"><Array as="points"><mxPoint x="235" y="421"/></Array></mxGeometry></mxCell><mxCell id="9" value="Cart Updated Message" style="verticalAlign=bottom;edgeStyle=elbowEdgeStyle;elbow=vertical;curved=0;rounded=0;dashed=1;dashPattern=2 3;endArrow=block;" edge="1" parent="1" source="3" target="2"><mxGeometry relative="1" as="geometry"><Array as="points"><mxPoint x="238" y="523"/></Array></mxGeometry></mxCell><mxCell id="10" value="Request to Proceed to Checkout" style="verticalAlign=bottom;edgeStyle=elbowEdgeStyle;elbow=vertical;curved=0;rounded=0;endArrow=block;" edge="1" parent="1" source="2" target="3"><mxGeometry relative="1" as="geometry"><Array as="points"><mxPoint x="235" y="577"/></Array></mxGeometry></mxCell><mxCell id="11" value="Checkout Successful" style="verticalAlign=bottom;edgeStyle=elbowEdgeStyle;elbow=vertical;curved=0;rounded=0;dashed=1;dashPattern=2 3;endArrow=block;" edge="1" parent="1" source="3" target="2"><mxGeometry relative="1" as="geometry"><Array as="points"><mxPoint x="238" y="679"/></Array></mxGeometry></mxCell><mxCell id="12" value="Request to Place Order" style="verticalAlign=bottom;edgeStyle=elbowEdgeStyle;elbow=vertical;curved=0;rounded=0;endArrow=block;" edge="1" parent="1" source="2" target="3"><mxGeometry relative="1" as="geometry"><Array as="points"><mxPoint x="235" y="733"/></Array></mxGeometry></mxCell><mxCell id="13" value="Order Confirmation" style="verticalAlign=bottom;edgeStyle=elbowEdgeStyle;elbow=vertical;curved=0;rounded=0;dashed=1;dashPattern=2 3;endArrow=block;" edge="1" parent="1" source="3" target="2"><mxGeometry relative="1" as="geometry"><Array as="points"><mxPoint x="238" y="835"/></Array></mxGeometry></mxCell><mxCell id="14" value="System processes request&#10;and retrieves product catalog data" style="fillColor=#ffff88;strokeColor=#9E916F;" vertex="1" parent="1"><mxGeometry x="402" y="129" width="458" height="48" as="geometry"/></mxCell><mxCell id="15" value="System handles request&#10;and adds product to cart" style="fillColor=#ffff88;strokeColor=#9E916F;" vertex="1" parent="1"><mxGeometry x="402" y="285" width="377" height="48" as="geometry"/></mxCell><mxCell id="16" value="System verifies quantity&#10;and updates cart accordingly" style="fillColor=#ffff88;strokeColor=#9E916F;" vertex="1" parent="1"><mxGeometry x="402" y="441" width="406" height="48" as="geometry"/></mxCell><mxCell id="17" value="System calculates total&#10;and processes the checkout request" style="fillColor=#ffff88;strokeColor=#9E916F;" vertex="1" parent="1"><mxGeometry x="402" y="597" width="448" height="48" as="geometry"/></mxCell><mxCell id="18" value="System generates order confirmation&#10;and processes the order" style="fillColor=#ffff88;strokeColor=#9E916F;" vertex="1" parent="1"><mxGeometry x="402" y="753" width="467" height="48" as="geometry"/></mxCell></root></mxGraphModel>